<svg xmlns="http://www.w3.org/2000/svg" width="180" height="180" viewBox="0 0 180 180">
  <defs>
    <style>
      .cls-1, .cls-2 {
        fill-rule: evenodd;
      }

      .cls-2 {
        fill: #fff;
      }
    </style>
  </defs>
  <path id="矩形_2" data-name="矩形 2" class="cls-1" d="M63,3h53a60,60,0,0,1,60,60v52a60,60,0,0,1-60,60H63A60,60,0,0,1,3,115V63A60,60,0,0,1,63,3Z"/>
  <path id="矩形_3" data-name="矩形 3" class="cls-2" d="M44.4,79.52h0.209a2.92,2.92,0,0,1,2.92,2.92V96.557a2.92,2.92,0,0,1-2.92,2.92H44.4a2.92,2.92,0,0,1-2.92-2.92V82.44A2.92,2.92,0,0,1,44.4,79.52Z"/>
  <path id="矩形_3_拷贝_4" data-name="矩形 3 拷贝 4" class="cls-2" d="M89.4,79.52h0.209a2.92,2.92,0,0,1,2.92,2.92V96.557a2.92,2.92,0,0,1-2.92,2.92H89.4a2.92,2.92,0,0,1-2.92-2.92V82.44A2.92,2.92,0,0,1,89.4,79.52Z"/>
  <path id="矩形_3_拷贝_8" data-name="矩形 3 拷贝 8" class="cls-2" d="M135.4,79.52h0.209a2.92,2.92,0,0,1,2.92,2.92V96.557a2.92,2.92,0,0,1-2.92,2.92H135.4a2.919,2.919,0,0,1-2.919-2.92V82.44A2.919,2.919,0,0,1,135.4,79.52Z"/>
  <path id="矩形_3_拷贝" data-name="矩形 3 拷贝" class="cls-2" d="M55.5,68.527a3.062,3.062,0,0,1,3.063,3.063v35.835a3.063,3.063,0,0,1-6.125,0V71.59A3.062,3.062,0,0,1,55.5,68.527Z"/>
  <path id="矩形_3_拷贝_5" data-name="矩形 3 拷贝 5" class="cls-2" d="M101.5,68.527a3.062,3.062,0,0,1,3.062,3.063v35.835a3.062,3.062,0,0,1-6.125,0V71.59A3.062,3.062,0,0,1,101.5,68.527Z"/>
  <path id="矩形_3_拷贝_3" data-name="矩形 3 拷贝 3" class="cls-2" d="M78.5,65.565a3.009,3.009,0,0,1,3.009,3.009v41.833a3.009,3.009,0,0,1-6.018,0V68.574A3.009,3.009,0,0,1,78.5,65.565Z"/>
  <path id="矩形_3_拷贝_6" data-name="矩形 3 拷贝 6" class="cls-2" d="M124.5,65.565a3.009,3.009,0,0,1,3.009,3.009v41.833a3.009,3.009,0,0,1-6.018,0V68.574A3.009,3.009,0,0,1,124.5,65.565Z"/>
  <path id="矩形_3_拷贝_2" data-name="矩形 3 拷贝 2" class="cls-2" d="M67.5,54.883a3.063,3.063,0,0,1,3.063,3.063v64.134a3.063,3.063,0,1,1-6.125,0V57.945A3.063,3.063,0,0,1,67.5,54.883Z"/>
  <path id="矩形_3_拷贝_7" data-name="矩形 3 拷贝 7" class="cls-2" d="M113.5,54.883a3.062,3.062,0,0,1,3.062,3.063v64.134a3.063,3.063,0,1,1-6.125,0V57.945A3.063,3.063,0,0,1,113.5,54.883Z"/>
</svg>
